<svg xmlns="http://www.w3.org/2000/svg" width="33" height="17" viewBox="0 0 33 17" fill="none">
  <g clip-path="url(#clip0_25_136)">
    <path d="M0.171631 0H32.1486V16.83H0.171631V0Z" fill="#B22234"/>
    <path d="M0.171631 1.94193H32.1486H0.171631ZM32.1486 4.53116H0.171631H32.1486ZM0.171631 7.12039H32.1486H0.171631ZM32.1486 9.70962H0.171631H32.1486ZM0.171631 12.2988H32.1486H0.171631ZM32.1486 14.8881H0.171631H32.1486Z" fill="black"/>
    <path d="M0.171631 1.94193H32.1486M32.1486 4.53116H0.171631M0.171631 7.12039H32.1486M32.1486 9.70962H0.171631M0.171631 12.2988H32.1486M32.1486 14.8881H0.171631" stroke="#E1E7EF" stroke-width="1.29462"/>
    <path d="M0.171631 0H12.9624V9.06231H0.171631V0Z" fill="#3C3B6E"/>
    <path d="M1.23761 0.388397L1.542 1.32519L0.745117 0.74622H1.73012L0.933233 1.32519L1.23761 0.388397Z" fill="#E1E7EF"/>
    <path d="M1.23761 2.20087L1.542 3.13766L0.745117 2.55869H1.73012L0.933233 3.13766L1.23761 2.20087Z" fill="#E1E7EF"/>
    <path d="M1.23761 4.01332L1.542 4.95011L0.745117 4.37114H1.73012L0.933233 4.95011L1.23761 4.01332Z" fill="#E1E7EF"/>
    <path d="M1.23761 5.82578L1.542 6.76257L0.745117 6.1836H1.73012L0.933233 6.76257L1.23761 5.82578Z" fill="#E1E7EF"/>
    <path d="M1.23761 7.63824L1.542 8.57504L0.745117 7.99607H1.73012L0.933233 8.57504L1.23761 7.63824Z" fill="#E1E7EF"/>
    <path d="M2.30353 1.29462L2.60791 2.23141L1.81104 1.65244H2.79603L1.99915 2.23141L2.30353 1.29462Z" fill="#E1E7EF"/>
    <path d="M2.30353 3.10709L2.60791 4.04388L1.81104 3.46491H2.79603L1.99915 4.04388L2.30353 3.10709Z" fill="#E1E7EF"/>
    <path d="M2.30353 4.91954L2.60791 5.85633L1.81104 5.27736H2.79603L1.99915 5.85633L2.30353 4.91954Z" fill="#E1E7EF"/>
    <path d="M2.30353 6.73199L2.60791 7.66879L1.81104 7.08982H2.79603L1.99915 7.66879L2.30353 6.73199Z" fill="#E1E7EF"/>
    <path d="M3.36945 0.388397L3.67383 1.32519L2.87695 0.74622H3.86195L3.06507 1.32519L3.36945 0.388397Z" fill="#E1E7EF"/>
    <path d="M3.36945 2.20087L3.67383 3.13766L2.87695 2.55869H3.86195L3.06507 3.13766L3.36945 2.20087Z" fill="#E1E7EF"/>
    <path d="M3.36945 4.01332L3.67383 4.95011L2.87695 4.37114H3.86195L3.06507 4.95011L3.36945 4.01332Z" fill="#E1E7EF"/>
    <path d="M3.36945 5.82578L3.67383 6.76257L2.87695 6.1836H3.86195L3.06507 6.76257L3.36945 5.82578Z" fill="#E1E7EF"/>
    <path d="M3.36945 7.63824L3.67383 8.57504L2.87695 7.99607H3.86195L3.06507 8.57504L3.36945 7.63824Z" fill="#E1E7EF"/>
    <path d="M4.43537 1.29462L4.73975 2.23141L3.94287 1.65244H4.92787L4.13099 2.23141L4.43537 1.29462Z" fill="#E1E7EF"/>
    <path d="M4.43537 3.10709L4.73975 4.04388L3.94287 3.46491H4.92787L4.13099 4.04388L4.43537 3.10709Z" fill="#E1E7EF"/>
    <path d="M4.43537 4.91954L4.73975 5.85633L3.94287 5.27736H4.92787L4.13099 5.85633L4.43537 4.91954Z" fill="#E1E7EF"/>
    <path d="M4.43537 6.73199L4.73975 7.66879L3.94287 7.08982H4.92787L4.13099 7.66879L4.43537 6.73199Z" fill="#E1E7EF"/>
    <path d="M5.50129 0.388397L5.80567 1.32519L5.00879 0.74622H5.99379L5.19691 1.32519L5.50129 0.388397Z" fill="#E1E7EF"/>
    <path d="M5.50129 2.20087L5.80567 3.13766L5.00879 2.55869H5.99379L5.19691 3.13766L5.50129 2.20087Z" fill="#E1E7EF"/>
    <path d="M5.50129 4.01332L5.80567 4.95011L5.00879 4.37114H5.99379L5.19691 4.95011L5.50129 4.01332Z" fill="#E1E7EF"/>
    <path d="M5.50129 5.82578L5.80567 6.76257L5.00879 6.1836H5.99379L5.19691 6.76257L5.50129 5.82578Z" fill="#E1E7EF"/>
    <path d="M5.50129 7.63824L5.80567 8.57504L5.00879 7.99607H5.99379L5.19691 8.57504L5.50129 7.63824Z" fill="#E1E7EF"/>
    <path d="M6.5672 1.29462L6.87159 2.23141L6.07471 1.65244H7.05971L6.26282 2.23141L6.5672 1.29462Z" fill="#E1E7EF"/>
    <path d="M6.5672 3.10709L6.87159 4.04388L6.07471 3.46491H7.05971L6.26282 4.04388L6.5672 3.10709Z" fill="#E1E7EF"/>
    <path d="M6.5672 4.91954L6.87159 5.85633L6.07471 5.27736H7.05971L6.26282 5.85633L6.5672 4.91954Z" fill="#E1E7EF"/>
    <path d="M6.5672 6.73199L6.87159 7.66879L6.07471 7.08982H7.05971L6.26282 7.66879L6.5672 6.73199Z" fill="#E1E7EF"/>
    <path d="M7.63312 0.388397L7.9375 1.32519L7.14062 0.74622H8.12562L7.32874 1.32519L7.63312 0.388397Z" fill="#E1E7EF"/>
    <path d="M7.63312 2.20087L7.9375 3.13766L7.14062 2.55869H8.12562L7.32874 3.13766L7.63312 2.20087Z" fill="#E1E7EF"/>
    <path d="M7.63312 4.01332L7.9375 4.95011L7.14062 4.37114H8.12562L7.32874 4.95011L7.63312 4.01332Z" fill="#E1E7EF"/>
    <path d="M7.63312 5.82578L7.9375 6.76257L7.14062 6.1836H8.12562L7.32874 6.76257L7.63312 5.82578Z" fill="#E1E7EF"/>
    <path d="M7.63312 7.63824L7.9375 8.57504L7.14062 7.99607H8.12562L7.32874 8.57504L7.63312 7.63824Z" fill="#E1E7EF"/>
    <path d="M8.69904 1.29462L9.00342 2.23141L8.20654 1.65244H9.19154L8.39466 2.23141L8.69904 1.29462Z" fill="#E1E7EF"/>
    <path d="M8.69904 3.10709L9.00342 4.04388L8.20654 3.46491H9.19154L8.39466 4.04388L8.69904 3.10709Z" fill="#E1E7EF"/>
    <path d="M8.69904 4.91954L9.00342 5.85633L8.20654 5.27736H9.19154L8.39466 5.85633L8.69904 4.91954Z" fill="#E1E7EF"/>
    <path d="M8.69904 6.73199L9.00342 7.66879L8.20654 7.08982H9.19154L8.39466 7.66879L8.69904 6.73199Z" fill="#E1E7EF"/>
    <path d="M9.76471 0.388397L10.0691 1.32519L9.27222 0.74622H10.2572L9.46033 1.32519L9.76471 0.388397Z" fill="#E1E7EF"/>
    <path d="M9.76471 2.20087L10.0691 3.13766L9.27222 2.55869H10.2572L9.46033 3.13766L9.76471 2.20087Z" fill="#E1E7EF"/>
    <path d="M9.76471 4.01332L10.0691 4.95011L9.27222 4.37114H10.2572L9.46033 4.95011L9.76471 4.01332Z" fill="#E1E7EF"/>
    <path d="M9.76471 5.82578L10.0691 6.76257L9.27222 6.1836H10.2572L9.46033 6.76257L9.76471 5.82578Z" fill="#E1E7EF"/>
    <path d="M9.76471 7.63824L10.0691 8.57504L9.27222 7.99607H10.2572L9.46033 8.57504L9.76471 7.63824Z" fill="#E1E7EF"/>
    <path d="M10.8306 1.29462L11.135 2.23141L10.3381 1.65244H11.3231L10.5263 2.23141L10.8306 1.29462Z" fill="#E1E7EF"/>
    <path d="M10.8306 3.10709L11.135 4.04388L10.3381 3.46491H11.3231L10.5263 4.04388L10.8306 3.10709Z" fill="#E1E7EF"/>
    <path d="M10.8306 4.91954L11.135 5.85633L10.3381 5.27736H11.3231L10.5263 5.85633L10.8306 4.91954Z" fill="#E1E7EF"/>
    <path d="M10.8306 6.73199L11.135 7.66879L10.3381 7.08982H11.3231L10.5263 7.66879L10.8306 6.73199Z" fill="#E1E7EF"/>
    <path d="M11.8966 0.388397L12.2009 1.32519L11.4041 0.74622H12.3891L11.5922 1.32519L11.8966 0.388397Z" fill="#E1E7EF"/>
    <path d="M11.8966 2.20087L12.2009 3.13766L11.4041 2.55869H12.3891L11.5922 3.13766L11.8966 2.20087Z" fill="#E1E7EF"/>
    <path d="M11.8966 4.01332L12.2009 4.95011L11.4041 4.37114H12.3891L11.5922 4.95011L11.8966 4.01332Z" fill="#E1E7EF"/>
    <path d="M11.8966 5.82578L12.2009 6.76257L11.4041 6.1836H12.3891L11.5922 6.76257L11.8966 5.82578Z" fill="#E1E7EF"/>
    <path d="M11.8966 7.63824L12.2009 8.57504L11.4041 7.99607H12.3891L11.5922 8.57504L11.8966 7.63824Z" fill="#E1E7EF"/>
  </g>
  <defs>
    <clipPath id="clip0_25_136">
      <rect width="31.977" height="16.83" fill="white" transform="translate(0.171631)"/>
    </clipPath>
  </defs>
</svg>